<svg width="1143" height="71" viewBox="0 0 1143 71" fill="none" xmlns="http://www.w3.org/2000/svg">
<g clip-path="url(#clip0_2457_155)">
<path fill-rule="evenodd" clip-rule="evenodd" d="M-494 10C-494 4.47715 -489.523 0 -484 0H1416C1421.52 0 1426 4.47715 1426 10V94.99C1426 94.9955 1426 95 1425.99 95V95C1425.98 95 1425.98 94.9957 1425.98 94.9903C1425.45 81.6513 1414.47 71 1401 71H1142.52C1137.46 71 1133.3 67.1673 1131.81 62.3261C1125.54 41.8723 1106.51 27 1084 27H57C34.492 27 15.4576 41.8723 9.18782 62.3261C7.70382 67.1673 3.54451 71 -1.51903 71H-469C-482.469 71 -493.45 81.6513 -493.98 94.9903C-493.98 94.9957 -493.985 95 -493.99 95V95C-493.996 95 -494 94.9955 -494 94.99V10Z" fill="#7027E2"/>
</g>
<defs>
<clipPath id="clip0_2457_155">
<rect width="1143" height="71" fill="white"/>
</clipPath>
</defs>
</svg>
